<?xml version="1.0" encoding="UTF-8"?>
<svg width="1200" height="1200" viewBox="0 0 1200 1200" fill="none" xmlns="http://www.w3.org/2000/svg">
  <defs>
    <linearGradient id="bg-010" x1="160" y1="120" x2="1040" y2="1040" gradientUnits="userSpaceOnUse">
      <stop stop-color="#100f12"/>
      <stop offset="1" stop-color="#2a242c"/>
    </linearGradient>
    <radialGradient id="glow-010" cx="0" cy="0" r="1" gradientUnits="userSpaceOnUse" gradientTransform="translate(530 416) rotate(90) scale(420 360)">
      <stop stop-color="#d7ff57" stop-opacity="0.48"/>
      <stop offset="1" stop-color="#d7ff57" stop-opacity="0"/>
    </radialGradient>
    <filter id="soft-010" x="-20%" y="-20%" width="140%" height="140%">
      <feGaussianBlur stdDeviation="18"/>
    </filter>
  </defs>

  <rect width="1200" height="1200" rx="56" fill="url(#bg-010)"/>
  <path d="M0 972L190 924L288 1036L0 1200V972Z" fill="#ff8d49" opacity="0.14"/>
  <path d="M1120 0L1200 0V310L1028 220Z" fill="#96db5c" opacity="0.1"/>
  <circle cx="534" cy="420" r="354" fill="url(#glow-010)"/>
  <g opacity="0.45" fill="#d7ff57"><circle cx="200" cy="180" r="16"/><circle cx="980" cy="228" r="12"/></g>
  <g opacity="0.22"><path d="M780 770C780 560 865 380 930 380C995 380 1080 560 1080 770Z" fill="#2a242c"/><path d="M820 420H1042L982 308H876Z" fill="#ff8d49"/></g>
  <g opacity="0.18">
    <path d="M54 944H1146" stroke="#96db5c" stroke-width="16" stroke-linecap="round" stroke-dasharray="22 28"/>
    <path d="M0 1142H1200" stroke="#ff8d49" stroke-width="24"/>
  </g>
  <g filter="url(#soft-010)" opacity="0.22">
    <ellipse cx="560" cy="980" rx="274" ry="70" fill="#000"/>
  </g>
  <g><path d="M390 248C422 174 636 174 670 248L646 318H414Z" fill="#101010" stroke="#d7ff57" stroke-width="10"/></g>
  <g>
    <g>
      <ellipse cx="530" cy="420" rx="166" ry="154" fill="#96db5c" stroke="#121212" stroke-width="16"/>
      <path d="M368 418C368 286 450 214 530 214C610 214 692 286 692 418V636H368Z" fill="#ff8d49" opacity="0.86"/>
      <path d="M430 670C466 628 594 628 632 670V836H430Z" fill="#d7ff57" opacity="0.86" stroke="#121212" stroke-width="12"/>
      <ellipse cx="474" cy="428" rx="34" ry="56" fill="#fff"/>
      <ellipse cx="586" cy="428" rx="34" ry="56" fill="#fff"/>
      <circle cx="474" cy="424" r="14" fill="#121212"/>
      <circle cx="586" cy="424" r="14" fill="#121212"/>
      <path d="M454 560C490 528 570 528 606 560L574 612H486Z" fill="#121212"/>
      <path d="M448 246C424 178 356 150 310 104" stroke="#d7ff57" stroke-width="18" fill="none" stroke-linecap="round"/>
      <path d="M612 246C636 178 704 150 750 104" stroke="#d7ff57" stroke-width="18" fill="none" stroke-linecap="round"/>
      <path d="M360 594C298 646 268 726 280 814" stroke="#121212" stroke-width="16" fill="none" stroke-linecap="round"/>
      <path d="M698 594C760 646 792 726 780 814" stroke="#121212" stroke-width="16" fill="none" stroke-linecap="round"/>
      <path d="M470 700C432 788 430 872 470 948" stroke="#121212" stroke-width="16" fill="none" stroke-linecap="round"/>
      <path d="M590 700C628 788 630 872 590 948" stroke="#121212" stroke-width="16" fill="none" stroke-linecap="round"/>
      <circle cx="270" cy="814" r="24" fill="#d7ff57" stroke="#121212" stroke-width="10"/>
      <circle cx="788" cy="814" r="24" fill="#d7ff57" stroke="#121212" stroke-width="10"/>
    </g>
  </g>
  <g><g transform="translate(790 620)"><rect x="-7" y="-190" width="14" height="300" rx="7" fill="#ff8d49"/><path d="M0 -250L36 -182H-36Z" fill="#96db5c"/></g></g>
  <g><g><circle cx="486" cy="392" r="40" fill="#96db5c"/><path d="M480 366V418M496 366V418M462 378H508C522 378 530 386 530 398C530 410 522 418 506 418H462M462 378H502C516 378 524 370 524 358C524 346 514 338 498 338H462" stroke="#111" stroke-width="12" stroke-linecap="round"/></g></g>
  <g opacity="0.9">
    <rect x="74" y="72" width="292" height="92" rx="24" fill="rgba(7, 7, 7, 0.42)"/>
    <text x="104" y="126" fill="#96db5c" font-size="52" font-family="Arial, sans-serif" font-weight="700">LAST WAR #010</text>
  </g>
  <g opacity="0.88">
    <rect x="76" y="1028" width="430" height="88" rx="22" fill="rgba(7, 7, 7, 0.46)"/>
    <text x="104" y="1084" fill="#d7ff57" font-size="34" font-family="Arial, sans-serif" font-weight="700">ASH GENERAL</text>
  </g>
</svg>