<?xml version="1.0" encoding="UTF-8"?>
<svg width="1200" height="1200" viewBox="0 0 1200 1200" fill="none" xmlns="http://www.w3.org/2000/svg">
  <defs>
    <linearGradient id="bg-005" x1="160" y1="120" x2="1040" y2="1040" gradientUnits="userSpaceOnUse">
      <stop stop-color="#120f0e"/>
      <stop offset="1" stop-color="#412922"/>
    </linearGradient>
    <radialGradient id="glow-005" cx="0" cy="0" r="1" gradientUnits="userSpaceOnUse" gradientTransform="translate(530 416) rotate(90) scale(420 360)">
      <stop stop-color="#f19d57" stop-opacity="0.48"/>
      <stop offset="1" stop-color="#f19d57" stop-opacity="0"/>
    </radialGradient>
    <filter id="soft-005" x="-20%" y="-20%" width="140%" height="140%">
      <feGaussianBlur stdDeviation="18"/>
    </filter>
  </defs>

  <rect width="1200" height="1200" rx="56" fill="url(#bg-005)"/>
  <path d="M0 972L190 924L288 1036L0 1200V972Z" fill="#f05f36" opacity="0.14"/>
  <path d="M1120 0L1200 0V310L1028 220Z" fill="#efe3af" opacity="0.1"/>
  <circle cx="534" cy="420" r="354" fill="url(#glow-005)"/>
  <g opacity="0.45" fill="#f19d57"><path d="M120 900C280 820 410 846 520 920V1020H120Z"/><circle cx="936" cy="214" r="30"/></g>
  <g opacity="0.26"><path d="M680 745C800 565 910 660 1080 470V770H680Z" fill="#412922"/><rect x="840" y="440" width="70" height="120" fill="#f05f36"/></g>
  <g opacity="0.18">
    <path d="M54 944H1146" stroke="#efe3af" stroke-width="16" stroke-linecap="round" stroke-dasharray="22 28"/>
    <path d="M0 1142H1200" stroke="#f05f36" stroke-width="24"/>
  </g>
  <g filter="url(#soft-005)" opacity="0.22">
    <ellipse cx="560" cy="980" rx="274" ry="70" fill="#000"/>
  </g>
  <g><path d="M392 280L450 184L505 268L562 190L612 276L668 226L676 310H386Z" fill="#efe2b5" stroke="#101010" stroke-width="10"/></g>
  <g>
      <g>
        <circle cx="406" cy="352" r="82" fill="#f05f36" stroke="#121212" stroke-width="14"/>
        <circle cx="654" cy="352" r="82" fill="#f05f36" stroke="#121212" stroke-width="14"/>
        <path d="M444 630C356 594 332 500 374 410C416 324 520 286 620 320C720 356 786 466 752 578C718 692 574 746 444 630Z" fill="#f05f36" stroke="#121212" stroke-width="16"/>
        <ellipse cx="532" cy="430" rx="176" ry="146" fill="#f19d57" opacity="0.72"/>
        <path d="M426 678C464 636 594 636 638 678V818H426Z" fill="#f19d57" opacity="0.9" stroke="#121212" stroke-width="12"/>
        <ellipse cx="476" cy="438" rx="34" ry="56" fill="#fff"/>
        <ellipse cx="582" cy="438" rx="34" ry="56" fill="#fff"/>
        <circle cx="476" cy="434" r="14" fill="#121212"/>
        <circle cx="582" cy="434" r="14" fill="#121212"/>
        <ellipse cx="530" cy="540" rx="62" ry="46" fill="#ffd9cc" stroke="#121212" stroke-width="10"/>
        <path d="M470 540H590" stroke="#121212" stroke-width="10" stroke-linecap="round"/>
        <path d="M340 554C278 614 252 702 264 790" stroke="#121212" stroke-width="16" fill="none" stroke-linecap="round"/>
        <path d="M722 550C784 608 814 698 800 790" stroke="#121212" stroke-width="16" fill="none" stroke-linecap="round"/>
        <path d="M386 724C322 780 318 878 382 954" stroke="#ffd9cc" stroke-width="18" stroke-linecap="round"/>
        <path d="M676 724C742 778 744 874 680 950" stroke="#ffd9cc" stroke-width="18" stroke-linecap="round"/>
        <circle cx="286" cy="790" r="24" fill="#ffd9cc" stroke="#121212" stroke-width="10"/>
        <circle cx="786" cy="790" r="24" fill="#ffd9cc" stroke="#121212" stroke-width="10"/>
      </g>
    </g>
  <g><g transform="translate(790 620)"><rect x="-7" y="-190" width="14" height="300" rx="7" fill="#f05f36"/><path d="M0 -250L36 -182H-36Z" fill="#efe3af"/></g></g>
  <g><g opacity="0.9"><circle cx="610" cy="274" r="42" fill="#efe3af"/><path d="M605 248V298M620 248V298M584 258H632C642 258 650 266 650 276C650 286 642 294 632 294H584M584 258H626C636 258 644 250 644 240C644 230 636 222 626 222H584" stroke="#111" stroke-width="10" stroke-linecap="round"/></g></g>
  <g opacity="0.9">
    <rect x="74" y="72" width="292" height="92" rx="24" fill="rgba(7, 7, 7, 0.42)"/>
    <text x="104" y="126" fill="#efe3af" font-size="52" font-family="Arial, sans-serif" font-weight="700">LAST WAR #005</text>
  </g>
  <g opacity="0.88">
    <rect x="76" y="1028" width="430" height="88" rx="22" fill="rgba(7, 7, 7, 0.46)"/>
    <text x="104" y="1084" fill="#f19d57" font-size="34" font-family="Arial, sans-serif" font-weight="700">WARLORD OF DUST</text>
  </g>
</svg>