<?xml version="1.0" encoding="UTF-8"?>
<svg width="1200" height="1200" viewBox="0 0 1200 1200" fill="none" xmlns="http://www.w3.org/2000/svg">
  <defs>
    <linearGradient id="bg-004" x1="160" y1="120" x2="1040" y2="1040" gradientUnits="userSpaceOnUse">
      <stop stop-color="#0f0a12"/>
      <stop offset="1" stop-color="#28183a"/>
    </linearGradient>
    <radialGradient id="glow-004" cx="0" cy="0" r="1" gradientUnits="userSpaceOnUse" gradientTransform="translate(530 416) rotate(90) scale(420 360)">
      <stop stop-color="#d975ff" stop-opacity="0.48"/>
      <stop offset="1" stop-color="#d975ff" stop-opacity="0"/>
    </radialGradient>
    <filter id="soft-004" x="-20%" y="-20%" width="140%" height="140%">
      <feGaussianBlur stdDeviation="18"/>
    </filter>
  </defs>

  <rect width="1200" height="1200" rx="56" fill="url(#bg-004)"/>
  <path d="M0 972L190 924L288 1036L0 1200V972Z" fill="#ffd966" opacity="0.14"/>
  <path d="M1120 0L1200 0V310L1028 220Z" fill="#8bff73" opacity="0.1"/>
  <circle cx="534" cy="420" r="354" fill="url(#glow-004)"/>
  <g opacity="0.5" stroke="#d975ff" stroke-width="8" fill="none"><path d="M210 924C320 820 450 820 550 924"/><path d="M628 180C732 230 812 216 940 152"/></g>
  <g opacity="0.22"><rect x="760" y="240" width="280" height="220" rx="22" fill="#28183a"/><path d="M760 430L1040 300V460L760 470Z" fill="#ffd966"/></g>
  <g opacity="0.18">
    <path d="M54 944H1146" stroke="#8bff73" stroke-width="16" stroke-linecap="round" stroke-dasharray="22 28"/>
    <path d="M0 1142H1200" stroke="#ffd966" stroke-width="24"/>
  </g>
  <g filter="url(#soft-004)" opacity="0.22">
    <ellipse cx="560" cy="980" rx="274" ry="70" fill="#000"/>
  </g>
  <g><g fill="none" stroke="#d975ff" stroke-width="14"><circle cx="530" cy="228" r="110"/><circle cx="530" cy="228" r="82"/></g></g>
  <g>
    <g>
      <ellipse cx="530" cy="420" rx="166" ry="154" fill="#8bff73" stroke="#121212" stroke-width="16"/>
      <path d="M368 418C368 286 450 214 530 214C610 214 692 286 692 418V636H368Z" fill="#ffd966" opacity="0.86"/>
      <path d="M430 670C466 628 594 628 632 670V836H430Z" fill="#d975ff" opacity="0.86" stroke="#121212" stroke-width="12"/>
      <ellipse cx="474" cy="428" rx="34" ry="56" fill="#fff"/>
      <ellipse cx="586" cy="428" rx="34" ry="56" fill="#fff"/>
      <circle cx="474" cy="424" r="14" fill="#121212"/>
      <circle cx="586" cy="424" r="14" fill="#121212"/>
      <path d="M454 560C490 528 570 528 606 560L574 612H486Z" fill="#121212"/>
      <path d="M448 246C424 178 356 150 310 104" stroke="#d975ff" stroke-width="18" fill="none" stroke-linecap="round"/>
      <path d="M612 246C636 178 704 150 750 104" stroke="#d975ff" stroke-width="18" fill="none" stroke-linecap="round"/>
      <path d="M360 594C298 646 268 726 280 814" stroke="#121212" stroke-width="16" fill="none" stroke-linecap="round"/>
      <path d="M698 594C760 646 792 726 780 814" stroke="#121212" stroke-width="16" fill="none" stroke-linecap="round"/>
      <path d="M470 700C432 788 430 872 470 948" stroke="#121212" stroke-width="16" fill="none" stroke-linecap="round"/>
      <path d="M590 700C628 788 630 872 590 948" stroke="#121212" stroke-width="16" fill="none" stroke-linecap="round"/>
      <circle cx="270" cy="814" r="24" fill="#d975ff" stroke="#121212" stroke-width="10"/>
      <circle cx="788" cy="814" r="24" fill="#d975ff" stroke="#121212" stroke-width="10"/>
    </g>
  </g>
  <g><rect x="782" y="440" width="16" height="290" rx="8" fill="#ffd966"/></g>
  <g><g opacity="0.88"><circle cx="530" cy="340" r="150" fill="none" stroke="#8bff73" stroke-width="24"/><path d="M520 264V416M546 264V416M468 294H562C590 294 606 310 606 334C606 358 590 374 562 374H468M468 294H552C580 294 594 278 594 254C594 230 578 214 550 214H468" stroke="#8bff73" stroke-width="18" stroke-linecap="round"/></g></g>
  <g opacity="0.9">
    <rect x="74" y="72" width="292" height="92" rx="24" fill="rgba(7, 7, 7, 0.42)"/>
    <text x="104" y="126" fill="#8bff73" font-size="52" font-family="Arial, sans-serif" font-weight="700">LAST WAR #004</text>
  </g>
  <g opacity="0.88">
    <rect x="76" y="1028" width="430" height="88" rx="22" fill="rgba(7, 7, 7, 0.46)"/>
    <text x="104" y="1084" fill="#d975ff" font-size="34" font-family="Arial, sans-serif" font-weight="700">SIGNAL HERETIC</text>
  </g>
</svg>