<?xml version="1.0" encoding="UTF-8"?>
<svg width="1200" height="1200" viewBox="0 0 1200 1200" fill="none" xmlns="http://www.w3.org/2000/svg">
  <defs>
    <linearGradient id="bg-008" x1="160" y1="120" x2="1040" y2="1040" gradientUnits="userSpaceOnUse">
      <stop stop-color="#0b0d12"/>
      <stop offset="1" stop-color="#12263c"/>
    </linearGradient>
    <radialGradient id="glow-008" cx="0" cy="0" r="1" gradientUnits="userSpaceOnUse" gradientTransform="translate(530 416) rotate(90) scale(420 360)">
      <stop stop-color="#54bcff" stop-opacity="0.48"/>
      <stop offset="1" stop-color="#54bcff" stop-opacity="0"/>
    </radialGradient>
    <filter id="soft-008" x="-20%" y="-20%" width="140%" height="140%">
      <feGaussianBlur stdDeviation="18"/>
    </filter>
  </defs>

  <rect width="1200" height="1200" rx="56" fill="url(#bg-008)"/>
  <path d="M0 972L190 924L288 1036L0 1200V972Z" fill="#f7cb4d" opacity="0.14"/>
  <path d="M1120 0L1200 0V310L1028 220Z" fill="#85ffbd" opacity="0.1"/>
  <circle cx="534" cy="420" r="354" fill="url(#glow-008)"/>
  <g opacity="0.5" stroke="#54bcff" stroke-width="8" fill="none"><path d="M210 924C320 820 450 820 550 924"/><path d="M628 180C732 230 812 216 940 152"/></g>
  <g opacity="0.22"><rect x="790" y="280" width="84" height="490" fill="#12263c"/><rect x="920" y="198" width="124" height="580" fill="#f7cb4d"/><rect x="864" y="612" width="190" height="24" fill="#12263c"/></g>
  <g opacity="0.18">
    <path d="M54 944H1146" stroke="#85ffbd" stroke-width="16" stroke-linecap="round" stroke-dasharray="22 28"/>
    <path d="M0 1142H1200" stroke="#f7cb4d" stroke-width="24"/>
  </g>
  <g filter="url(#soft-008)" opacity="0.22">
    <ellipse cx="560" cy="980" rx="274" ry="70" fill="#000"/>
  </g>
  <g><g><rect x="406" y="236" width="250" height="64" rx="24" fill="#54bcff" opacity="0.7"/><path d="M406 270H656" stroke="#101010" stroke-width="10"/></g></g>
  <g>
    <g>
      <ellipse cx="530" cy="420" rx="166" ry="154" fill="#85ffbd" stroke="#121212" stroke-width="16"/>
      <path d="M368 418C368 286 450 214 530 214C610 214 692 286 692 418V636H368Z" fill="#f7cb4d" opacity="0.86"/>
      <path d="M430 670C466 628 594 628 632 670V836H430Z" fill="#54bcff" opacity="0.86" stroke="#121212" stroke-width="12"/>
      <ellipse cx="474" cy="428" rx="34" ry="56" fill="#fff"/>
      <ellipse cx="586" cy="428" rx="34" ry="56" fill="#fff"/>
      <circle cx="474" cy="424" r="14" fill="#121212"/>
      <circle cx="586" cy="424" r="14" fill="#121212"/>
      <path d="M454 560C490 528 570 528 606 560L574 612H486Z" fill="#121212"/>
      <path d="M448 246C424 178 356 150 310 104" stroke="#54bcff" stroke-width="18" fill="none" stroke-linecap="round"/>
      <path d="M612 246C636 178 704 150 750 104" stroke="#54bcff" stroke-width="18" fill="none" stroke-linecap="round"/>
      <path d="M360 594C298 646 268 726 280 814" stroke="#121212" stroke-width="16" fill="none" stroke-linecap="round"/>
      <path d="M698 594C760 646 792 726 780 814" stroke="#121212" stroke-width="16" fill="none" stroke-linecap="round"/>
      <path d="M470 700C432 788 430 872 470 948" stroke="#121212" stroke-width="16" fill="none" stroke-linecap="round"/>
      <path d="M590 700C628 788 630 872 590 948" stroke="#121212" stroke-width="16" fill="none" stroke-linecap="round"/>
      <circle cx="270" cy="814" r="24" fill="#54bcff" stroke="#121212" stroke-width="10"/>
      <circle cx="788" cy="814" r="24" fill="#54bcff" stroke="#121212" stroke-width="10"/>
    </g>
  </g>
  <g><rect x="780" y="430" width="20" height="300" rx="10" fill="#85ffbd"/></g>
  <g><g opacity="0.9"><circle cx="380" cy="556" r="34" fill="#85ffbd"/><path d="M374 536V578M388 536V578M356 544H398C408 544 414 550 414 558C414 568 408 574 398 574H356M356 544H392C402 544 408 538 408 528C408 518 402 512 392 512H356" stroke="#111" stroke-width="10" stroke-linecap="round"/></g></g>
  <g opacity="0.9">
    <rect x="74" y="72" width="292" height="92" rx="24" fill="rgba(7, 7, 7, 0.42)"/>
    <text x="104" y="126" fill="#85ffbd" font-size="52" font-family="Arial, sans-serif" font-weight="700">LAST WAR #008</text>
  </g>
  <g opacity="0.88">
    <rect x="76" y="1028" width="430" height="88" rx="22" fill="rgba(7, 7, 7, 0.46)"/>
    <text x="104" y="1084" fill="#54bcff" font-size="34" font-family="Arial, sans-serif" font-weight="700">NEON SCAVENGER</text>
  </g>
</svg>