<?xml version="1.0" encoding="UTF-8"?>
<svg width="1200" height="1200" viewBox="0 0 1200 1200" fill="none" xmlns="http://www.w3.org/2000/svg">
  <defs>
    <linearGradient id="bg-011" x1="160" y1="120" x2="1040" y2="1040" gradientUnits="userSpaceOnUse">
      <stop stop-color="#100d09"/>
      <stop offset="1" stop-color="#372717"/>
    </linearGradient>
    <radialGradient id="glow-011" cx="0" cy="0" r="1" gradientUnits="userSpaceOnUse" gradientTransform="translate(530 416) rotate(90) scale(420 360)">
      <stop stop-color="#e8b164" stop-opacity="0.48"/>
      <stop offset="1" stop-color="#e8b164" stop-opacity="0"/>
    </radialGradient>
    <filter id="soft-011" x="-20%" y="-20%" width="140%" height="140%">
      <feGaussianBlur stdDeviation="18"/>
    </filter>
  </defs>

  <rect width="1200" height="1200" rx="56" fill="url(#bg-011)"/>
  <path d="M0 972L190 924L288 1036L0 1200V972Z" fill="#8ef06f" opacity="0.14"/>
  <path d="M1120 0L1200 0V310L1028 220Z" fill="#f4efcc" opacity="0.1"/>
  <circle cx="534" cy="420" r="354" fill="url(#glow-011)"/>
  <g opacity="0.45" fill="#e8b164"><circle cx="200" cy="180" r="16"/><circle cx="980" cy="228" r="12"/></g>
  <g opacity="0.22"><rect x="744" y="330" width="290" height="410" rx="26" fill="#372717"/><path d="M792 420H982V462H792ZM792 500H982V542H792ZM792 580H982V622H792Z" fill="#8ef06f"/></g>
  <g opacity="0.18">
    <path d="M54 944H1146" stroke="#f4efcc" stroke-width="16" stroke-linecap="round" stroke-dasharray="22 28"/>
    <path d="M0 1142H1200" stroke="#8ef06f" stroke-width="24"/>
  </g>
  <g filter="url(#soft-011)" opacity="0.22">
    <ellipse cx="560" cy="980" rx="274" ry="70" fill="#000"/>
  </g>
  <g><path d="M408 230H652L622 350H438Z" fill="#d4bd8a" stroke="#101010" stroke-width="10"/></g>
  <g>
      <g>
        <circle cx="406" cy="352" r="82" fill="#8ef06f" stroke="#121212" stroke-width="14"/>
        <circle cx="654" cy="352" r="82" fill="#8ef06f" stroke="#121212" stroke-width="14"/>
        <path d="M444 630C356 594 332 500 374 410C416 324 520 286 620 320C720 356 786 466 752 578C718 692 574 746 444 630Z" fill="#8ef06f" stroke="#121212" stroke-width="16"/>
        <ellipse cx="532" cy="430" rx="176" ry="146" fill="#e8b164" opacity="0.72"/>
        <path d="M426 678C464 636 594 636 638 678V818H426Z" fill="#e8b164" opacity="0.9" stroke="#121212" stroke-width="12"/>
        <ellipse cx="476" cy="438" rx="34" ry="56" fill="#fff"/>
        <ellipse cx="582" cy="438" rx="34" ry="56" fill="#fff"/>
        <circle cx="476" cy="434" r="14" fill="#121212"/>
        <circle cx="582" cy="434" r="14" fill="#121212"/>
        <ellipse cx="530" cy="540" rx="62" ry="46" fill="#ffd9cc" stroke="#121212" stroke-width="10"/>
        <path d="M470 540H590" stroke="#121212" stroke-width="10" stroke-linecap="round"/>
        <path d="M340 554C278 614 252 702 264 790" stroke="#121212" stroke-width="16" fill="none" stroke-linecap="round"/>
        <path d="M722 550C784 608 814 698 800 790" stroke="#121212" stroke-width="16" fill="none" stroke-linecap="round"/>
        <path d="M386 724C322 780 318 878 382 954" stroke="#ffd9cc" stroke-width="18" stroke-linecap="round"/>
        <path d="M676 724C742 778 744 874 680 950" stroke="#ffd9cc" stroke-width="18" stroke-linecap="round"/>
        <circle cx="286" cy="790" r="24" fill="#ffd9cc" stroke="#121212" stroke-width="10"/>
        <circle cx="786" cy="790" r="24" fill="#ffd9cc" stroke="#121212" stroke-width="10"/>
      </g>
    </g>
  <g><rect x="782" y="440" width="16" height="290" rx="8" fill="#8ef06f"/></g>
  <g><g opacity="0.88"><circle cx="530" cy="340" r="150" fill="none" stroke="#f4efcc" stroke-width="24"/><path d="M520 264V416M546 264V416M468 294H562C590 294 606 310 606 334C606 358 590 374 562 374H468M468 294H552C580 294 594 278 594 254C594 230 578 214 550 214H468" stroke="#f4efcc" stroke-width="18" stroke-linecap="round"/></g></g>
  <g opacity="0.9">
    <rect x="74" y="72" width="292" height="92" rx="24" fill="rgba(7, 7, 7, 0.42)"/>
    <text x="104" y="126" fill="#f4efcc" font-size="52" font-family="Arial, sans-serif" font-weight="700">LAST WAR #011</text>
  </g>
  <g opacity="0.88">
    <rect x="76" y="1028" width="430" height="88" rx="22" fill="rgba(7, 7, 7, 0.46)"/>
    <text x="104" y="1084" fill="#e8b164" font-size="34" font-family="Arial, sans-serif" font-weight="700">ARCHIVE SMUGGLER</text>
  </g>
</svg>